<svg xmlns="http://www.w3.org/2000/svg" viewBox="0 0 1310 256" width="1310" height="256" role="img" aria-label="Tesserae Server"><defs><clipPath id="t"><rect width="256" height="256" rx="72"/></clipPath></defs><rect width="256" height="256" rx="72" fill="#1C1B19"/><path d="M128 55H174A27 27 0 0 1 201 82V128H128Z" fill="#D0493C"/><path d="M55 128H128V201H82A27 27 0 0 1 55 174Z" fill="#FFFDF8"/><path fill="#1C1B19" d="M317.4931640625 91.96484375V73.4345703125H406.62890625V91.96484375H373.3037109375V182.5654296875H350.8916015625V91.96484375ZM455.484375 184.1767578125Q442.9599609375 184.1767578125 433.8779296875 179.0498046875Q424.7958984375 173.9228515625 419.92529296875 164.474609375Q415.0546875 155.0263671875 415.0546875 142.0625Q415.0546875 129.3916015625 419.888671875 119.8701171875Q424.72265625 110.3486328125 433.5849609375 105.001953125Q442.447265625 99.6552734375 454.3857421875 99.6552734375Q462.4423828125 99.6552734375 469.400390625 102.21875Q476.3583984375 104.7822265625 481.6318359375 109.94580078125Q486.9052734375 115.109375 489.87158203125 122.873046875Q492.837890625 130.63671875 492.837890625 141.18359375V147.3359375H424.0634765625V133.56640625H482.0712890625L471.8173828125 137.228515625Q471.8173828125 130.8564453125 469.87646484375 126.13232421875Q467.935546875 121.408203125 464.09033203125 118.80810546875Q460.2451171875 116.2080078125 454.60546875 116.2080078125Q448.892578125 116.2080078125 444.90087890625 118.8447265625Q440.9091796875 121.4814453125 438.8583984375 125.98583984375Q436.8076171875 130.490234375 436.8076171875 136.2763671875V146.017578125Q436.8076171875 153.1220703125 439.18798828125 157.9560546875Q441.568359375 162.7900390625 445.85302734375 165.20703125Q450.1376953125 167.6240234375 455.8505859375 167.6240234375Q459.732421875 167.6240234375 462.8818359375 166.525390625Q466.03125 165.4267578125 468.26513671875 163.26611328125Q470.4990234375 161.10546875 471.6708984375 157.9560546875L491.5927734375 161.69140625Q489.615234375 168.4296875 484.7080078125 173.52001953125Q479.80078125 178.6103515625 472.43994140625 181.3935546875Q465.0791015625 184.1767578125 455.484375 184.1767578125ZM537.3720703125 184.1767578125Q527.484375 184.1767578125 519.8671875 181.35693359375Q512.25 178.537109375 507.416015625 173.15380859375Q502.58203125 167.7705078125 501.1904296875 160.1533203125L521.625 156.6376953125Q523.236328125 162.3505859375 527.2646484375 165.20703125Q531.29296875 168.0634765625 538.03125 168.0634765625Q544.330078125 168.0634765625 547.95556640625 165.68310546875Q551.5810546875 163.302734375 551.5810546875 159.640625Q551.5810546875 156.41796875 548.98095703125 154.3671875Q546.380859375 152.31640625 541.0341796875 151.2177734375L526.8984375 148.2880859375Q515.033203125 145.87109375 509.173828125 140.04833984375Q503.314453125 134.2255859375 503.314453125 125.0703125Q503.314453125 117.16015625 507.6357421875 111.48388671875Q511.95703125 105.8076171875 519.6474609375 102.7314453125Q527.337890625 99.6552734375 537.73828125 99.6552734375Q547.40625 99.6552734375 554.5107421875 102.32861328125Q561.615234375 105.001953125 566.009765625 109.9091796875Q570.404296875 114.81640625 571.869140625 121.4814453125L552.38671875 124.923828125Q551.1416015625 120.7490234375 547.58935546875 118.07568359375Q544.037109375 115.40234375 538.03125 115.40234375Q532.611328125 115.40234375 528.94921875 117.6728515625Q525.287109375 119.943359375 525.287109375 123.751953125Q525.287109375 126.828125 527.66748046875 128.9521484375Q530.0478515625 131.076171875 535.833984375 132.248046875L550.5556640625 135.177734375Q562.4208984375 137.5947265625 568.20703125 143.05126953125Q573.9931640625 148.5078125 573.9931640625 157.296875Q573.9931640625 165.353515625 569.3056640625 171.39599609375Q564.6181640625 177.4384765625 556.37841796875 180.8076171875Q548.138671875 184.1767578125 537.3720703125 184.1767578125ZM618.380859375 184.1767578125Q608.4931640625 184.1767578125 600.8759765625 181.35693359375Q593.2587890625 178.537109375 588.4248046875 173.15380859375Q583.5908203125 167.7705078125 582.19921875 160.1533203125L602.6337890625 156.6376953125Q604.2451171875 162.3505859375 608.2734375 165.20703125Q612.3017578125 168.0634765625 619.0400390625 168.0634765625Q625.3388671875 168.0634765625 628.96435546875 165.68310546875Q632.58984375 163.302734375 632.58984375 159.640625Q632.58984375 156.41796875 629.98974609375 154.3671875Q627.3896484375 152.31640625 622.04296875 151.2177734375L607.9072265625 148.2880859375Q596.0419921875 145.87109375 590.1826171875 140.04833984375Q584.3232421875 134.2255859375 584.3232421875 125.0703125Q584.3232421875 117.16015625 588.64453125 111.48388671875Q592.9658203125 105.8076171875 600.65625 102.7314453125Q608.3466796875 99.6552734375 618.7470703125 99.6552734375Q628.4150390625 99.6552734375 635.51953125 102.32861328125Q642.6240234375 105.001953125 647.0185546875 109.9091796875Q651.4130859375 114.81640625 652.8779296875 121.4814453125L633.3955078125 124.923828125Q632.150390625 120.7490234375 628.59814453125 118.07568359375Q625.0458984375 115.40234375 619.0400390625 115.40234375Q613.6201171875 115.40234375 609.9580078125 117.6728515625Q606.2958984375 119.943359375 606.2958984375 123.751953125Q606.2958984375 126.828125 608.67626953125 128.9521484375Q611.056640625 131.076171875 616.8427734375 132.248046875L631.564453125 135.177734375Q643.4296875 137.5947265625 649.2158203125 143.05126953125Q655.001953125 148.5078125 655.001953125 157.296875Q655.001953125 165.353515625 650.314453125 171.39599609375Q645.626953125 177.4384765625 637.38720703125 180.8076171875Q629.1474609375 184.1767578125 618.380859375 184.1767578125ZM703.857421875 184.1767578125Q691.3330078125 184.1767578125 682.2509765625 179.0498046875Q673.1689453125 173.9228515625 668.29833984375 164.474609375Q663.427734375 155.0263671875 663.427734375 142.0625Q663.427734375 129.3916015625 668.26171875 119.8701171875Q673.095703125 110.3486328125 681.9580078125 105.001953125Q690.8203125 99.6552734375 702.7587890625 99.6552734375Q710.8154296875 99.6552734375 717.7734375 102.21875Q724.7314453125 104.7822265625 730.0048828125 109.94580078125Q735.2783203125 115.109375 738.24462890625 122.873046875Q741.2109375 130.63671875 741.2109375 141.18359375V147.3359375H672.4365234375V133.56640625H730.4443359375L720.1904296875 137.228515625Q720.1904296875 130.8564453125 718.24951171875 126.13232421875Q716.30859375 121.408203125 712.46337890625 118.80810546875Q708.6181640625 116.2080078125 702.978515625 116.2080078125Q697.265625 116.2080078125 693.27392578125 118.8447265625Q689.2822265625 121.4814453125 687.2314453125 125.98583984375Q685.1806640625 130.490234375 685.1806640625 136.2763671875V146.017578125Q685.1806640625 153.1220703125 687.56103515625 157.9560546875Q689.94140625 162.7900390625 694.22607421875 165.20703125Q698.5107421875 167.6240234375 704.2236328125 167.6240234375Q708.10546875 167.6240234375 711.2548828125 166.525390625Q714.404296875 165.4267578125 716.63818359375 163.26611328125Q718.8720703125 161.10546875 720.0439453125 157.9560546875L739.9658203125 161.69140625Q737.98828125 168.4296875 733.0810546875 173.52001953125Q728.173828125 178.6103515625 720.81298828125 181.3935546875Q713.4521484375 184.1767578125 703.857421875 184.1767578125ZM753.2255859375 182.5654296875V100.6806640625H774.4658203125V114.962890625H775.3447265625Q777.615234375 107.345703125 782.92529296875 103.4638671875Q788.2353515625 99.58203125 795.1201171875 99.58203125Q796.8046875 99.58203125 798.7822265625 99.76513671875Q800.759765625 99.9482421875 802.224609375 100.314453125V119.943359375Q800.759765625 119.4306640625 797.9765625 119.1376953125Q795.193359375 118.8447265625 792.703125 118.8447265625Q787.72265625 118.8447265625 783.6943359375 121.00537109375Q779.666015625 123.166015625 777.43212890625 127.01123046875Q775.1982421875 130.8564453125 775.1982421875 135.9833984375V182.5654296875ZM834.1611328125 184.1767578125Q826.3974609375 184.1767578125 820.20849609375 181.43017578125Q814.01953125 178.68359375 810.46728515625 173.22705078125Q806.9150390625 167.7705078125 806.9150390625 159.640625Q806.9150390625 152.8291015625 809.44189453125 148.21484375Q811.96875 143.6005859375 816.32666015625 140.8173828125Q820.6845703125 138.0341796875 826.21435546875 136.5693359375Q831.744140625 135.1044921875 837.8232421875 134.5185546875Q844.927734375 133.7861328125 849.28564453125 133.16357421875Q853.6435546875 132.541015625 855.65771484375 131.18603515625Q857.671875 129.8310546875 857.671875 127.1943359375V126.828125Q857.671875 123.3125 856.20703125 120.8955078125Q854.7421875 118.478515625 851.84912109375 117.19677734375Q848.9560546875 115.9150390625 844.8544921875 115.9150390625Q840.6064453125 115.9150390625 837.45703125 117.19677734375Q834.3076171875 118.478515625 832.330078125 120.6025390625Q830.3525390625 122.7265625 829.400390625 125.36328125L809.2587890625 122.0673828125Q811.3828125 114.8896484375 816.2900390625 109.9091796875Q821.197265625 104.9287109375 828.48486328125 102.2919921875Q835.7724609375 99.6552734375 844.927734375 99.6552734375Q851.51953125 99.6552734375 857.7451171875 101.22998046875Q863.970703125 102.8046875 868.91455078125 106.1005859375Q873.8583984375 109.396484375 876.75146484375 114.70654296875Q879.64453125 120.0166015625 879.64453125 127.4140625V182.5654296875H858.84375V171.212890625H858.111328125Q856.1337890625 175.021484375 852.837890625 177.91455078125Q849.5419921875 180.8076171875 844.89111328125 182.4921875Q840.240234375 184.1767578125 834.1611328125 184.1767578125ZM840.38671875 168.72265625Q845.5869140625 168.72265625 849.50537109375 166.671875Q853.423828125 164.62109375 855.62109375 161.10546875Q857.818359375 157.58984375 857.818359375 153.2685546875V144.40625Q856.8662109375 145.138671875 854.888671875 145.724609375Q852.9111328125 146.310546875 850.494140625 146.75Q848.0771484375 147.189453125 845.7333984375 147.5556640625Q843.3896484375 147.921875 841.55859375 148.1416015625Q837.5302734375 148.7275390625 834.4541015625 150.0458984375Q831.3779296875 151.3642578125 829.693359375 153.52490234375Q828.0087890625 155.685546875 828.0087890625 159.0546875Q828.0087890625 162.2041015625 829.6201171875 164.36474609375Q831.2314453125 166.525390625 834.0146484375 167.6240234375Q836.7978515625 168.72265625 840.38671875 168.72265625ZM932.3818359375 184.1767578125Q919.857421875 184.1767578125 910.775390625 179.0498046875Q901.693359375 173.9228515625 896.82275390625 164.474609375Q891.9521484375 155.0263671875 891.9521484375 142.0625Q891.9521484375 129.3916015625 896.7861328125 119.8701171875Q901.6201171875 110.3486328125 910.482421875 105.001953125Q919.3447265625 99.6552734375 931.283203125 99.6552734375Q939.33984375 99.6552734375 946.2978515625 102.21875Q953.255859375 104.7822265625 958.529296875 109.94580078125Q963.802734375 115.109375 966.76904296875 122.873046875Q969.7353515625 130.63671875 969.7353515625 141.18359375V147.3359375H900.9609375V133.56640625H958.96875L948.71484375 137.228515625Q948.71484375 130.8564453125 946.77392578125 126.13232421875Q944.8330078125 121.408203125 940.98779296875 118.80810546875Q937.142578125 116.2080078125 931.5029296875 116.2080078125Q925.7900390625 116.2080078125 921.79833984375 118.8447265625Q917.806640625 121.4814453125 915.755859375 125.98583984375Q913.705078125 130.490234375 913.705078125 136.2763671875V146.017578125Q913.705078125 153.1220703125 916.08544921875 157.9560546875Q918.4658203125 162.7900390625 922.75048828125 165.20703125Q927.03515625 167.6240234375 932.748046875 167.6240234375Q936.6298828125 167.6240234375 939.779296875 166.525390625Q942.9287109375 165.4267578125 945.16259765625 163.26611328125Q947.396484375 161.10546875 948.568359375 157.9560546875L968.490234375 161.69140625Q966.5126953125 168.4296875 961.60546875 173.52001953125Q956.6982421875 178.6103515625 949.33740234375 181.3935546875Q941.9765625 184.1767578125 932.3818359375 184.1767578125Z"/><rect x="1015.4" y="82.0" width="287.5" height="92" rx="18" fill="#1C1B19"/><path fill="#FFFDF8" d="M1058.666015625 147.474609375Q1054.12109375 147.474609375 1050.7568359375 146.078125Q1047.392578125 144.681640625 1045.513671875 141.939453125Q1043.634765625 139.197265625 1043.533203125 135.185546875H1051.07421875Q1051.2265625 137.08984375 1052.216796875 138.3720703125Q1053.20703125 139.654296875 1054.857421875 140.2890625Q1056.5078125 140.923828125 1058.58984375 140.923828125Q1060.671875 140.923828125 1062.2080078125 140.3271484375Q1063.744140625 139.73046875 1064.607421875 138.638671875Q1065.470703125 137.546875 1065.470703125 136.099609375Q1065.470703125 134.8046875 1064.6962890625 133.9287109375Q1063.921875 133.052734375 1062.474609375 132.41796875Q1061.02734375 131.783203125 1058.9453125 131.30078125L1054.78125 130.259765625Q1049.982421875 129.091796875 1047.265625 126.5908203125Q1044.548828125 124.08984375 1044.548828125 119.9765625Q1044.548828125 116.548828125 1046.3896484375 113.984375Q1048.23046875 111.419921875 1051.4423828125 109.998046875Q1054.654296875 108.576171875 1058.767578125 108.576171875Q1062.95703125 108.576171875 1066.080078125 110.0107421875Q1069.203125 111.4453125 1070.955078125 113.9970703125Q1072.70703125 116.548828125 1072.7578125 119.875H1065.267578125Q1065.064453125 117.58984375 1063.3251953125 116.345703125Q1061.5859375 115.1015625 1058.69140625 115.1015625Q1056.736328125 115.1015625 1055.33984375 115.66015625Q1053.943359375 116.21875 1053.2197265625 117.208984375Q1052.49609375 118.19921875 1052.49609375 119.46875Q1052.49609375 120.865234375 1053.333984375 121.7919921875Q1054.171875 122.71875 1055.568359375 123.2900390625Q1056.96484375 123.861328125 1058.5390625 124.2421875L1061.966796875 125.080078125Q1064.353515625 125.61328125 1066.41015625 126.52734375Q1068.466796875 127.44140625 1070.015625 128.7744140625Q1071.564453125 130.107421875 1072.4150390625 131.935546875Q1073.265625 133.763671875 1073.265625 136.150390625Q1073.265625 139.578125 1071.5390625 142.1298828125Q1069.8125 144.681640625 1066.537109375 146.078125Q1063.26171875 147.474609375 1058.666015625 147.474609375ZM1085.0915625 146.916015625V109.083984375H1110.406015625V115.5078125H1092.835703125V124.6484375H1109.085703125V130.970703125H1092.835703125V140.4921875H1110.456796875V146.916015625ZM1122.9175 146.916015625V109.083984375H1137.669453125Q1141.985859375 109.083984375 1145.00734375 110.607421875Q1148.028828125 112.130859375 1149.6157421875 114.8984375Q1151.20265625 117.666015625 1151.20265625 121.3984375Q1151.20265625 125.130859375 1149.5903515625 127.8349609375Q1147.978046875 130.5390625 1144.9184765625 131.9736328125Q1141.85890625 133.408203125 1137.49171875 133.408203125H1127.4878125V127.13671875H1136.247578125Q1138.634296875 127.13671875 1140.157734375 126.4892578125Q1141.681171875 125.841796875 1142.442890625 124.5595703125Q1143.204609375 123.27734375 1143.204609375 121.3984375Q1143.204609375 119.46875 1142.442890625 118.1611328125Q1141.681171875 116.853515625 1140.1450390625 116.16796875Q1138.60890625 115.482421875 1136.2221875 115.482421875H1130.661640625V146.916015625ZM1143.966328125 146.916015625 1134.74953125 129.701171875H1143.153828125L1152.548359375 146.916015625ZM1174.378203125 146.916015625 1161.124296875 109.083984375H1169.73171875L1175.7746875 127.33984375Q1176.866484375 130.79296875 1177.983671875 134.9443359375Q1179.100859375 139.095703125 1180.345 144.021484375H1178.66921875Q1179.88796875 139.044921875 1180.954375 134.9189453125Q1182.02078125 130.79296875 1183.061796875 127.33984375L1188.901640625 109.083984375H1197.45828125L1184.5090625 146.916015625ZM1208.37015625 146.916015625V109.083984375H1233.684609375V115.5078125H1216.114296875V124.6484375H1232.364296875V130.970703125H1216.114296875V140.4921875H1233.735390625V146.916015625ZM1246.19609375 146.916015625V109.083984375H1260.948046875Q1265.264453125 109.083984375 1268.2859375 110.607421875Q1271.307421875 112.130859375 1272.8943359375 114.8984375Q1274.48125 117.666015625 1274.48125 121.3984375Q1274.48125 125.130859375 1272.8689453125 127.8349609375Q1271.256640625 130.5390625 1268.1970703125 131.9736328125Q1265.1375 133.408203125 1260.7703125 133.408203125H1250.76640625V127.13671875H1259.526171875Q1261.912890625 127.13671875 1263.436328125 126.4892578125Q1264.959765625 125.841796875 1265.721484375 124.5595703125Q1266.483203125 123.27734375 1266.483203125 121.3984375Q1266.483203125 119.46875 1265.721484375 118.1611328125Q1264.959765625 116.853515625 1263.4236328125 116.16796875Q1261.8875 115.482421875 1259.50078125 115.482421875H1253.940234375V146.916015625ZM1267.244921875 146.916015625 1258.028125 129.701171875H1266.432421875L1275.826953125 146.916015625Z"/></svg>
